<svg width="154" height="105" viewBox="0 0 154 105" fill="none" xmlns="http://www.w3.org/2000/svg">
<path d="M66.3158 46.5102C65.0868 48.1224 63.3829 48.3642 60.9529 47.3969C60.1149 48.0955 59.3328 48.7672 58.5507 49.4389C58.858 49.9494 59.0814 50.1913 59.2769 50.648C59.3328 50.9436 59.4725 51.3198 59.3328 51.5078C58.7742 52.3408 59.4166 53.738 57.9921 54.1947C57.9641 54.0067 57.9921 53.7917 57.9083 53.6305C57.7966 53.4693 57.5452 53.2006 57.4334 53.2275C56.6793 53.4693 56.0927 53.12 55.4782 52.6095C54.752 53.4155 54.1095 54.2216 53.2436 54.8933C52.7129 55.2695 52.0984 55.2426 51.6795 54.8127C51.1767 54.3022 50.8136 54.5978 50.4504 54.8933C50.2549 55.0546 50.1153 55.3232 49.9477 55.5651C49.8639 55.5113 49.7801 55.4576 49.6963 55.4307C49.6963 55.0546 49.6684 54.6784 49.6963 54.3291C49.7801 53.7648 50.1432 53.2812 49.8359 52.6363C49.7521 52.4483 50.1991 51.9377 50.4784 51.6422C50.7577 51.3735 51.1767 51.2123 51.4839 50.9436C51.6515 50.8093 51.7353 50.5674 51.875 50.3525C51.6236 50.3793 51.3163 50.3256 51.1208 50.4331C50.7577 50.6212 50.4504 50.9167 50.1432 51.1854C49.9197 51.3466 49.6963 51.5885 49.4449 51.6691C49.1935 51.7228 48.8583 51.6422 48.6628 51.5078C48.3835 51.3198 48.2438 50.863 47.9924 50.8093C47.6852 50.7555 47.3221 51.0242 46.9869 51.1317C46.8193 50.2987 47.0148 49.8688 47.8248 49.3046C47.9924 49.1702 48.188 48.9553 48.2159 48.7403C48.3555 47.2357 50.5901 48.4448 51.5677 48.1761C50.8694 47.2625 49.8639 47.2894 48.7187 47.4238C49.1376 46.3221 49.0259 45.4892 47.4897 45.6773C48.0204 44.4682 49.1935 44.9518 50.1432 44.4682C50.8974 44.1457 51.5119 44.2532 52.2102 44.9518C53.6347 46.2953 53.7185 46.3221 55.1709 45.0056C56.5955 43.689 57.9921 42.3187 59.3887 40.9752C59.4725 40.8946 59.5004 40.814 59.5842 40.6528C57.601 39.8736 56.2044 38.5301 55.0034 36.918C55.8134 36.4881 56.6234 36.1119 57.3776 35.6551C59.2211 34.5535 60.5897 32.9682 61.9305 31.383C63.8578 29.0991 66.0365 27.1914 69.0531 26.3853C70.2542 26.0629 71.5111 25.9017 72.7401 25.6599C74.7792 25.23 76.9579 24.9344 77.1813 22.4625C77.2093 22.1132 77.0975 22.0057 76.7624 22.0057C75.3099 21.8982 74.444 22.8924 74.4161 24.2627C73.2988 23.3491 71.2318 21.8176 72.4329 20.3398C72.6843 20.0174 72.7681 19.5606 72.8798 19.2919C73.4105 19.5606 73.9133 19.9368 74.4719 20.0711C75.4216 20.3129 76.2037 19.7487 76.1478 18.8083C76.092 17.9753 75.8406 17.1155 75.5054 16.3363C75.282 15.7989 74.7233 15.4496 74.053 15.5571C73.0753 15.7183 72.5446 16.4438 72.405 17.3574C71.3156 16.2826 70.6732 15.1541 70.6173 13.73C70.5894 13.327 70.8687 13.1927 71.2318 13.1658C71.7905 13.112 72.3212 13.0046 72.8798 12.924C72.8798 12.8165 72.8798 12.7359 72.8798 12.6284C72.0698 12.5747 71.2598 12.6015 70.4777 12.3597C70.6453 12.1716 70.7849 11.9029 71.0084 11.8223C71.4832 11.6343 72.0139 11.4999 72.5167 11.4193C74.5278 11.1237 76.5668 10.9625 78.55 10.5864C80.0863 10.2908 81.6505 10.5057 83.1867 10.9625C85.5609 11.6342 87.0972 13.1658 87.9351 15.369C88.41 16.6319 88.6893 17.9753 89.1083 19.265C89.3317 19.9368 89.6949 20.6085 90.03 21.334C89.6111 21.334 89.0524 21.334 88.382 21.334C90.03 24.2627 88.4938 27.1914 88.5496 30.3082C88.0189 29.9589 87.572 29.6633 87.0972 29.3678C86.7341 32.5921 84.6112 34.7953 82.1532 36.8642C86.3989 41.0289 90.449 45.2742 94.6388 49.4658C95.8958 50.7286 97.2923 51.7765 99.1917 51.884C102.46 52.1796 104.303 48.0955 102.208 45.9728C100.113 44.0114 97.5158 45.4086 98.5214 48.1761C96.2309 47.9074 95.7561 45.5161 97.6275 42.856C96.3985 42.5873 95.2533 42.9098 94.0243 42.9098C87.2368 42.9635 85.5889 35.6551 89.6111 31.2755C90.0859 32.2696 90.5049 33.1832 90.9797 34.1773C90.3652 34.9834 90.1976 36.0044 90.3094 37.0523C90.5049 38.7182 91.8177 39.7392 93.8567 39.793C94.3595 39.8198 94.8623 39.793 95.365 39.793C97.2365 39.793 97.2365 39.793 98.7169 40.7871C98.4934 39.8736 98.1024 39.0675 97.432 38.5033C96.2309 37.4822 94.974 36.4343 93.6053 35.6283C90.3094 33.6131 89.2759 29.2872 90.3652 26.2779C91.6222 22.4087 95.1416 20.6085 99.1638 20.3935C100.56 20.3398 100.812 19.1844 101.035 18.0828C102.013 17.8679 102.879 18.244 103.354 19.1307C103.521 19.48 103.717 19.6143 104.136 19.6412C105.421 19.7756 106.482 20.2861 107.208 21.3608C107.46 21.7639 107.488 22.0594 107.208 22.4356C106.482 23.5104 105.421 24.0477 104.136 24.1821C103.745 24.2358 103.521 24.3433 103.354 24.6926C102.907 25.5793 102.097 25.8748 101.119 25.8479C100.644 23.9134 99.5269 23.2148 97.5158 23.6984C95.365 24.1821 93.9405 25.5524 93.326 27.5407C92.7394 29.4753 93.2981 31.2486 94.8623 32.6189C96.0075 33.6131 97.2365 34.4998 98.4376 35.4402C99.7224 36.4343 100.784 37.5897 101.398 39.0944C101.426 39.2018 101.51 39.2556 101.566 39.3631C102.292 38.2883 103.298 37.939 104.527 38.1002C105.56 38.2346 106.286 38.7988 106.677 39.9004C106.37 39.8467 106.147 39.8198 105.951 39.7661C104.219 39.4437 103.018 40.8946 103.912 42.3724C104.555 43.5546 105.365 44.71 105.867 45.946C107.46 50.0569 104.638 54.4366 100.141 55.0814C96.1192 55.6994 93.8009 53.3618 91.1194 50.9436C88.41 52.7976 86.6782 56.4249 88.5776 59.4342C89.6111 61.1001 91.6222 61.7718 92.5439 59.6223C92.5998 59.4879 92.6836 59.3805 92.8512 59.1386C94.2478 62.5779 92.4601 65.829 90.0859 68.301C89.22 69.107 88.7172 70.0475 88.6334 71.2566C88.6055 71.9283 88.2424 72.6 87.991 73.3523C86.0637 71.3103 84.8347 73.5942 84.1923 75.2332C83.2426 77.4096 82.0415 78.1619 79.6114 78.0007C78.6617 77.9469 78.5779 78.8605 78.4103 79.5322C77.5165 79.1023 77.2651 78.6187 77.3489 77.7589C77.3769 77.4096 77.3489 77.0065 77.2372 76.6572C76.902 75.8512 77.1813 75.1257 77.6562 74.4002C76.9858 74.5883 76.7903 74.8033 76.7903 75.4481C76.7903 75.9318 76.8741 76.4154 76.9299 76.8991C76.9579 77.1946 76.9299 77.5708 76.5389 77.4633C75.3937 77.2215 74.8909 77.8932 74.5278 78.7799C73.1591 77.6783 73.7178 75.0182 74.4161 73.7016C74.4719 73.5673 74.444 73.4061 74.4719 73.1374C73.7178 73.5136 73.7736 74.1584 73.606 74.6958C73.4384 75.26 73.3267 75.8243 73.1871 76.4423C71.9022 75.475 72.0419 75.4481 70.8408 76.4154C70.1704 75.4481 70.338 74.5346 71.3715 73.7823C71.4553 73.7285 71.5949 73.6479 71.5949 73.5673C71.5949 72.7612 72.2932 72.4925 72.7681 72.0626C72.9357 71.9014 73.0474 71.7133 73.1871 71.5253C73.1033 71.4715 73.0195 71.3909 72.9357 71.3103C72.3491 71.9014 71.7346 72.5194 71.0084 73.2449C70.9804 72.0358 70.4777 71.3909 69.1928 71.7402C69.3883 70.7461 69.9749 70.3162 70.9525 70.3968C71.148 70.3968 71.4273 70.3699 71.5391 70.2624C72.9077 68.9458 74.6675 70.0475 76.1478 70.558C77.9355 71.2297 79.6393 71.1491 81.0359 69.7519C82.7119 68.0323 84.3319 66.2589 85.9799 64.4856C86.0637 64.405 86.0916 64.2706 86.1754 64.0825C85.6447 64.0288 85.1699 63.9213 84.695 63.9482C84.5274 63.9482 84.304 64.1631 84.1923 64.3244C83.5778 65.1304 82.7398 65.426 81.7901 65.5066C81.7342 65.426 81.6784 65.3722 81.7063 65.3454C82.237 64.0019 81.846 62.9003 80.9801 61.8255C78.969 59.3536 78.6338 56.4517 78.7735 53.4693C78.8293 52.4214 78.969 51.3735 79.0528 50.2987C79.0528 50.0838 79.0248 49.7882 78.8852 49.6808C76.0641 47.0207 73.0474 44.6294 69.1649 43.5815C67.9359 43.2322 66.5672 43.1516 65.3382 43.6621C64.165 44.1189 64.0533 45.4354 65.1985 45.9997C65.5616 46.1609 65.9247 46.3221 66.3158 46.5102ZM83.5498 11.7955C83.494 11.8492 83.4381 11.9029 83.3822 11.9567C83.4381 12.091 83.4381 12.2522 83.5219 12.3597C84.4157 13.2733 84.6112 14.2137 83.7453 15.2616C83.6616 15.369 83.7174 15.5571 83.7174 15.7183C83.8571 15.6646 84.0526 15.6646 84.1643 15.584C85.3095 14.563 84.9185 12.6284 83.5498 11.7955ZM76.9858 11.8492C76.9858 12.3328 76.9858 12.6821 76.9858 13.112C77.9914 12.7896 78.8852 12.5209 79.8069 12.2254C79.8069 12.1448 79.779 12.091 79.779 12.0104C78.8852 11.9567 77.9634 11.9029 76.9858 11.8492Z" fill="#f6f6f8"/>
<path d="M110.728 93.5579C110.532 86.5719 115.644 81.225 122.906 82.0848C131.928 82.8103 134.414 93.5847 130.084 99.9258C128.297 102.452 125.727 103.714 122.627 104.037C115.588 104.816 110.867 100.087 110.728 93.5579ZM126.788 92.8593C126.9 89.9037 125.168 85.7659 121.453 85.8196C115.699 85.7927 114.862 94.3102 117.292 97.9913C119.331 101.108 123.66 101.027 125.587 97.8569C126.481 96.3791 126.788 94.7401 126.788 92.8593Z" fill="#f6f6f8"/>
<path d="M153.687 103.714C152.039 103.714 150.447 103.714 148.771 103.714C148.771 100.759 148.771 97.83 148.771 94.8476C145.978 94.8476 143.268 94.8476 140.475 94.8476C140.475 97.7763 140.475 100.732 140.475 103.714C138.771 103.714 137.151 103.714 135.475 103.714C135.475 96.6209 135.475 89.5275 135.475 82.4072C137.123 82.4072 138.743 82.4072 140.419 82.4072C140.419 85.121 140.419 87.781 140.419 90.5217C143.184 90.5217 145.922 90.5217 148.715 90.5217C148.715 87.8616 148.715 85.1479 148.715 82.4072C150.419 82.4072 152.039 82.4072 153.687 82.4072C153.687 89.5006 153.687 96.5672 153.687 103.714Z" fill="#f6f6f8"/>
<path d="M79.1926 63.1421C77.4887 65.0498 74.4721 65.1036 72.0141 65.1573C71.1761 65.1573 70.4778 65.3991 69.8074 65.8559C69.2488 66.2589 68.6622 66.5814 67.9639 67.0113C67.9081 66.6888 67.908 66.5276 67.8801 66.3664C67.7405 65.211 66.7349 64.6737 65.6735 65.2379C65.2545 65.4797 64.8355 65.8022 64.5003 66.1514C63.6065 67.065 62.601 67.3874 61.344 66.9038C61.1764 66.85 60.8413 66.9307 60.7295 67.065C60.4502 67.4143 60.2547 67.7905 60.0033 68.1935C59.4447 67.9248 59.2491 67.468 59.3609 66.8769C59.4167 66.6082 59.6402 66.2858 59.5564 66.0977C59.1653 65.2916 59.5564 64.6737 59.9754 64.0557C60.0871 63.9213 60.0312 63.6795 60.0871 63.3302C59.0257 63.8945 59.2491 64.9692 58.6067 65.7216C57.8805 64.7274 57.0425 64.3781 56.0928 65.3991C55.4504 64.2706 56.6515 63.7601 56.847 62.9272C57.0146 62.1748 57.9363 61.6106 58.4112 60.8851C57.3498 61.127 57.0146 62.0942 56.1766 62.7391C55.8694 61.6912 55.6739 60.5896 54.1655 61.0195C54.2773 60.2403 54.6962 59.8641 55.4504 59.7566C55.6459 59.7298 55.9252 59.7029 56.037 59.5685C56.6794 58.8699 57.4336 58.9774 58.2157 59.2461C58.467 59.3267 58.7464 59.3267 59.0257 59.3267C59.0257 59.3267 59.0816 59.1118 59.0536 59.1118C58.4391 58.655 57.7688 58.7356 57.0984 58.5744C56.9587 58.5207 56.7911 58.1445 56.8191 58.1176C57.4894 57.5265 57.1542 57.0429 56.5956 56.5861C56.6235 56.5324 56.6515 56.4517 56.6794 56.398C57.1822 56.4249 57.657 56.4517 58.1598 56.5324C58.5508 56.5861 58.9419 56.7742 59.3329 56.801C60.1988 56.8548 60.7854 57.3384 61.2044 57.9564C63.3831 61.1269 66.9584 60.5627 70.3661 60.3746C70.394 60.294 70.4219 60.2134 70.4219 60.1328C68.6901 58.252 66.8466 56.2905 66.8466 53.6036C66.8466 53.4424 66.5673 53.2275 66.3718 53.1737C64.9752 52.7707 64.0534 51.8034 63.9138 50.46C63.9976 50.46 64.0814 50.4331 64.1372 50.4331C66.3997 50.9167 67.7405 48.9016 69.1929 47.6118C71.3716 45.5698 73.3269 46.3759 75.6452 47.6387C75.2262 48.9284 75.3938 49.4121 76.567 50.2181C78.4663 51.5078 78.2149 50.9436 78.0474 53.2812C78.0474 53.4693 77.9915 53.6574 77.9636 53.8992C77.6284 53.738 77.377 53.5768 77.1256 53.4693C75.31 52.6901 73.7179 53.8186 73.9134 55.7263C74.3045 58.9237 77.0697 60.8583 79.1926 63.1421Z" fill="#f6f6f8"/>
<path d="M57.21 103.607C57.21 96.5403 57.21 89.5006 57.21 82.4072C62.126 82.4072 67.0141 82.4072 71.958 82.4072C71.958 83.6701 71.958 84.9329 71.958 86.2495C68.7179 86.2495 65.5337 86.2495 62.2656 86.2495C62.2656 87.4855 62.2656 88.6677 62.2656 89.8231C62.8243 89.8231 63.3829 89.8499 63.9416 89.8231C66.4275 89.7156 68.8017 90.038 70.9525 91.3546C74.835 93.7191 74.8071 100.168 70.2542 102.425C66.4275 104.44 62.0981 103.741 57.9362 103.714C57.6848 103.741 57.4613 103.661 57.21 103.607ZM62.2377 100.248C63.6622 100.383 65.003 100.49 66.2879 99.9258C67.6844 99.3347 68.5503 98.0987 68.5224 96.7015C68.4107 93.6922 64.8075 93.0474 62.2377 93.531C62.2377 95.7611 62.2377 97.9644 62.2377 100.248Z" fill="#f6f6f8"/>
<path d="M34.25 103.956C34.0544 102.855 33.8868 101.753 33.6913 100.678C33.6355 100.383 33.6634 100.141 34.0544 100.06C35.9817 99.684 36.9873 98.3943 37.3504 96.6478C38.2442 91.9457 37.7973 87.1362 37.8811 82.3804C42.8809 82.3804 47.797 82.3804 52.7688 82.3804C52.7688 89.4738 52.7688 96.5135 52.7688 103.634C51.1488 103.634 49.5287 103.634 47.8528 103.634C47.8528 97.8838 47.8528 92.1338 47.8528 86.3301C46.121 86.3301 44.473 86.3301 42.7413 86.3301C42.434 92.9936 44.2775 104.064 34.25 103.956Z" fill="#D92222"/>
<path d="M12.2114 103.714C14.3901 96.7552 16.5967 89.8768 18.7754 82.9177C18.8872 82.5684 19.0268 82.3535 19.5017 82.3535C21.3452 82.3803 23.1887 82.3803 25.0601 82.3535C25.4232 82.3535 25.5908 82.4341 25.7026 82.7834C27.8813 89.7693 30.2834 96.6746 32.3504 103.687C31.1214 103.687 29.9762 103.687 28.7751 103.687C27.0433 103.687 27.0433 103.687 26.5405 102.048C26.2053 100.92 25.8422 99.8183 25.507 98.7167C25.3953 98.3405 25.2277 98.2062 24.8367 98.2062C23.0211 98.233 21.2335 98.233 19.4179 98.2062C19.0268 98.2062 18.8872 98.3405 18.7754 98.6629C18.3565 100.141 17.9095 101.619 17.5185 103.123C17.4068 103.526 17.2392 103.714 16.7643 103.687C15.3119 103.714 13.8315 103.714 12.2114 103.714ZM22.0435 85.9539C21.2335 88.9364 20.4514 91.7576 19.6972 94.6326C21.3452 94.6326 22.9373 94.6326 24.5853 94.6326C23.7473 91.7307 22.9373 88.9095 22.0435 85.9539Z" fill="#D92222"/>
<path d="M77.1533 82.4072C81.7062 82.4072 86.2312 82.4072 90.812 82.4072C90.812 83.6969 90.812 84.9867 90.812 86.3301C87.963 86.3301 85.086 86.3301 82.1811 86.3301C82.1811 87.8348 82.1811 89.2588 82.1811 90.7635C84.8905 90.7635 87.5719 90.7635 90.3093 90.7635C90.3093 92.1069 90.3093 93.3698 90.3093 94.6864C87.6278 94.6864 84.9184 94.6864 82.209 94.6864C82.209 96.406 82.209 98.045 82.209 99.7646C85.1977 99.7646 88.2144 99.7646 91.259 99.7646C91.259 101.108 91.259 102.398 91.259 103.714C86.5664 103.714 81.9018 103.714 77.1813 103.714C77.1533 96.6209 77.1533 89.5544 77.1533 82.4072Z" fill="#f6f6f8"/>
<path d="M104.08 103.714C102.348 103.714 100.728 103.714 99.0241 103.714C99.0241 97.9375 99.0241 92.2144 99.0241 86.4107C97.013 86.4107 95.0857 86.4107 93.1025 86.4107C93.1025 85.0404 93.1025 83.7507 93.1025 82.4072C98.7448 82.4072 104.387 82.4072 110.085 82.4072C110.085 83.6969 110.085 85.0135 110.085 86.3838C108.102 86.3838 106.119 86.3838 104.08 86.3838C104.08 92.2144 104.08 97.9375 104.08 103.714Z" fill="#f6f6f8"/>
<path d="M5.14474 103.687C3.44089 103.687 1.82084 103.687 0.172852 103.687C0.172852 96.594 0.172852 89.5275 0.172852 82.4341C4.64196 82.4341 9.05522 82.4341 13.5243 82.4341C13.5243 83.7238 13.5243 84.9866 13.5243 86.3032C10.7591 86.3032 7.9938 86.3032 5.14474 86.3032C5.14474 92.1338 5.14474 97.8838 5.14474 103.687Z" fill="#D92222"/>
<path d="M55.7016 19.0501C56.3999 19.5875 57.0424 20.501 57.4055 21.2802C57.601 21.7639 57.5172 22.355 57.5172 22.8924C57.5172 23.1073 57.4613 23.3491 57.3496 23.5641C56.6792 25.0688 57.2658 26.2779 58.3831 27.3258C59.3048 28.2124 60.2545 29.0991 61.1763 30.0127C61.4277 30.2545 61.707 30.4694 61.4277 30.8725C60.4501 32.1891 59.3607 33.3713 57.992 34.446C56.6513 33.0489 55.3106 31.786 53.886 30.4963C53.0481 29.6902 52.8246 30.9262 52.2939 31.3561C52.0984 31.5442 51.8191 31.7591 51.5677 31.7591C50.7577 31.786 49.9197 31.7323 49.1097 31.6785C48.8583 31.6517 48.6069 31.4636 48.2438 31.3292C48.551 31.168 48.7466 31.0874 48.8862 30.9531C49.2493 30.6038 49.808 30.3351 49.2773 29.6634C48.9421 29.2335 49.1376 28.8036 49.5845 28.4543C50.2828 27.89 50.2549 27.6751 49.4728 27.1914C48.97 26.869 48.4393 26.6272 47.9645 26.2779C47.4338 25.9017 47.1265 25.3643 47.4058 24.7732C47.7969 23.9134 47.1544 23.5104 46.5679 23.0536C47.0986 22.6506 47.6851 22.6774 48.2717 22.7849C48.4952 22.8118 48.7745 22.8655 48.9421 22.7849C49.5007 22.5162 49.9756 22.6506 50.3666 23.0536C50.6739 23.3491 50.8973 23.7253 51.2325 24.0209C51.4001 24.1821 51.7073 24.209 51.9587 24.2896C51.9308 24.0477 51.9867 23.7522 51.847 23.5641C51.5118 23.0805 51.0649 22.6774 50.7856 22.1938C50.618 21.952 50.6739 21.6027 50.618 21.2802C50.5342 20.7429 50.4504 20.1786 50.3387 19.5337C50.8973 19.5606 51.428 19.8024 51.9587 20.1517C52.2101 20.3398 52.5453 20.501 52.8526 20.5816C53.7743 20.7966 53.9698 21.5221 54.1933 22.2206C54.305 22.5431 54.4447 22.8924 54.5843 23.2148C54.6961 23.2148 54.7799 23.1879 54.8916 23.1879C55.0592 22.5699 54.9475 22.0863 54.8078 21.4952C54.7799 21.3071 54.7519 21.0922 54.8357 20.9309C55.115 20.2861 55.4223 19.695 55.7016 19.0501Z" fill="#f6f6f8"/>
<path d="M77.5442 0C78.3542 0.403035 78.8011 1.04789 78.9408 1.93457C78.9687 2.12265 79.1922 2.28387 79.3598 2.41821C79.9464 2.84811 79.9464 3.38549 79.3877 3.8154C78.0191 4.97076 80.2257 6.5023 81.0078 4.94389C81.734 5.69623 82.3764 5.8037 82.8233 5.26632C83.382 4.62147 83.1865 4.19156 81.8178 3.19741C81.9016 3.08993 81.9575 2.92872 82.0692 2.84811C83.0468 2.20326 83.9965 1.53153 84.9741 0.913544C85.1138 0.832937 85.3093 0.832937 85.5607 0.779199C85.449 1.23597 85.3093 1.58527 85.2534 1.9883C85.002 4.03035 84.7507 6.04552 84.5272 8.08757C84.4993 8.46373 84.4713 8.73243 83.9686 8.73243C79.7229 8.70556 71.0081 8.59808 70.8685 8.46374C70.7009 8.30252 70.5333 3.38549 69.5557 0.859807C70.645 0.886676 72.684 2.3376 73.0751 3.33175C71.9299 4.13782 71.7064 4.64833 72.2651 5.26632C72.7399 5.77683 73.3265 5.69623 74.0806 4.99763C74.1365 5.05137 74.2203 5.07824 74.2482 5.15885C74.5276 5.58875 74.9745 5.74997 75.3655 5.56188C75.6728 5.42754 76.0638 5.05137 76.0638 4.78268C76.1197 3.70792 74.332 3.49297 75.589 2.41821C75.8124 2.23013 76.0359 1.93457 76.1197 1.63901C76.4269 0.886675 76.6225 0.591118 77.5442 0Z" fill="#f6f6f8"/>
<path d="M101.231 35.2253C100.924 34.5267 100.728 33.8818 100.337 33.3444C99.555 32.5384 98.0746 32.6996 97.0131 32.7533C96.0635 32.8608 95.421 32.4846 94.8903 31.786C94.4434 31.1949 93.9406 30.6307 93.8848 29.744C95.5607 29.744 97.1249 29.744 98.8008 29.744C100.337 29.7709 100.979 28.7767 101.063 27.3795C102.125 27.2183 102.851 27.5676 103.354 28.4812C103.521 28.7767 103.717 28.9379 104.08 28.9648C105.421 29.0991 106.51 29.6365 107.236 30.7919C107.432 31.1143 107.432 31.383 107.208 31.7323C106.482 32.8339 105.421 33.3982 104.108 33.5325C103.717 33.5594 103.493 33.6937 103.326 34.043C102.879 34.9566 102.069 35.2521 101.231 35.2253Z" fill="#f6f6f8"/>
<path d="M74.8909 17.9754C72.6564 17.9216 71.0084 19.2382 69.2766 20.2592C67.6286 21.1996 65.8969 21.8714 63.9416 21.8445C62.2098 21.8176 60.8691 20.8503 60.506 19.3994C60.0032 17.3305 61.735 15.6109 63.9416 15.9602C63.7461 16.3901 63.4668 16.7931 63.383 17.2499C63.1316 18.4053 63.8299 19.2919 65.0589 19.3188C67.6007 19.2113 70.0029 18.1366 72.4888 17.7067C73.243 17.5454 74.0809 17.7067 74.8909 17.7067C74.863 17.7873 74.8909 17.8679 74.8909 17.9754Z" fill="#f6f6f8"/>
</svg>